<svg xmlns="http://www.w3.org/2000/svg" width="256" height="256" viewBox="0 0 100 100"><path fill="#1a1a1a" d="M27.05 17.47L44.33 17.47Q49.28 17.47 53.47 18.77Q57.65 20.07 60.75 22.64Q63.86 25.20 65.61 28.94Q67.37 32.67 67.37 37.63L67.37 37.63Q67.37 41.49 66.25 45.18Q65.12 48.88 62.51 51.89Q59.90 54.91 55.72 56.75Q51.53 58.59 45.41 58.59L45.41 58.59L35.78 58.59L35.78 82.53L27.05 82.53L27.05 17.47ZM35.78 50.22L45.23 50.22Q49.10 50.22 51.67 49.05Q54.23 47.88 55.67 46.04Q57.11 44.20 57.74 42.03Q58.37 39.88 58.37 37.98L58.37 37.98Q58.37 36.00 57.69 33.89Q57.02 31.77 55.53 29.98Q54.05 28.17 51.67 27.00Q49.28 25.84 45.86 25.84L45.86 25.84L35.78 25.84L35.78 50.22ZM45.59 55.44L55.94 55.17L72.95 82.53L62.87 82.53L45.59 55.44Z"></path></svg>